<svg width="60" height="60" viewBox="0 0 60 60" fill="none" xmlns="http://www.w3.org/2000/svg">
<g clip-path="url(#clip0_926_472)">
<circle cx="30.1277" cy="30.1277" r="30.1277" fill="#FF7E7E"/>
<path d="M38.7529 18.5482L38.897 18.8956L38.7529 18.5482C38.5007 18.6528 38.2716 18.8062 38.0787 18.9994L30.0003 27.0614L21.921 18.9821C21.728 18.7891 21.4989 18.636 21.2468 18.5316L21.106 18.8715L21.2468 18.5316C20.9947 18.4272 20.7244 18.3734 20.4515 18.3734C20.1786 18.3734 19.9084 18.4272 19.6563 18.5316C19.4041 18.636 19.175 18.7891 18.9821 18.9821C18.7891 19.175 18.636 19.4041 18.5316 19.6563C18.4272 19.9084 18.3734 20.1786 18.3734 20.4515C18.3734 20.7244 18.4272 20.9947 18.5316 21.2468C18.636 21.4989 18.7891 21.728 18.9821 21.921L19.2484 21.6547L18.9821 21.921L27.0611 30L18.9821 38.079C18.7891 38.272 18.636 38.5011 18.5316 38.7532C18.4272 39.0053 18.3734 39.2756 18.3734 39.5485C18.3734 39.8214 18.4272 40.0916 18.5316 40.3437C18.636 40.5959 18.7891 40.825 18.9821 41.0179C19.175 41.2109 19.4041 41.364 19.6563 41.4684C19.9084 41.5728 20.1786 41.6266 20.4515 41.6266C20.7244 41.6266 20.9947 41.5728 21.2468 41.4684C21.4989 41.364 21.728 41.2109 21.921 41.0179L30 32.9389L38.079 41.0179C38.272 41.2109 38.5011 41.364 38.7532 41.4684C39.0053 41.5728 39.2756 41.6266 39.5485 41.6266C39.8214 41.6266 40.0916 41.5728 40.3437 41.4684C40.5959 41.364 40.825 41.2109 41.0179 41.0179C41.2109 40.825 41.364 40.5959 41.4684 40.3437C41.5728 40.0916 41.6266 39.8214 41.6266 39.5485C41.6266 39.2756 41.5728 39.0053 41.4684 38.7532C41.364 38.5011 41.2109 38.272 41.0179 38.079L32.9389 30L41.0179 21.921C41.8134 21.1255 41.8135 19.795 41.0182 18.9994C40.8253 18.8062 40.5962 18.6528 40.3441 18.5482C40.0919 18.4436 39.8215 18.3897 39.5485 18.3897C39.2754 18.3897 39.0051 18.4436 38.7529 18.5482Z" fill="#010101" stroke="#010101" stroke-width="0.753191"/>
</g>
<defs>
<clipPath id="clip0_926_472">
<rect width="60" height="60" fill="white"/>
</clipPath>
</defs>
</svg>
